<svg xmlns="http://www.w3.org/2000/svg" xmlns:xlink="http://www.w3.org/1999/xlink" viewBox="0 0 160 200" width="160" height="200" preserveAspectRatio="xMidYMid meet" style="width: 100%; height: 100%; transform: translate3d(0px, 0px, 0px); content-visibility: visible;" id="Girl doing yoga"><defs><clipPath id="__lottie_element_2266"><rect width="160" height="200" x="0" y="0"/></clipPath><clipPath id="__lottie_element_2272"><path d="M0,0 L430,0 L430,750 L0,750z"/></clipPath><clipPath id="__lottie_element_2285"><path d="M0,0 L430,0 L430,750 L0,750z"/></clipPath><clipPath id="__lottie_element_2298"><path d="M0,0 L430,0 L430,750 L0,750z"/></clipPath></defs><g clip-path="url(#__lottie_element_2266)"><g id="yogaIcon" class="yogaIcon" clip-path="url(#__lottie_element_2272)" transform="matrix(0.3499999940395355,0,0,0.3499999940395355,4.75,-31.25)" opacity="1" style="display: block;"><g transform="matrix(1,0,0,1,207.69900512695312,579.447021484375)" opacity="1" style="display: block;"><g opacity="1" transform="matrix(1,0,0,1,31.204999923706055,33.51599884033203)"><path fill="rgb(252,148,105)" fill-opacity="1" d=" M-29.503000259399414,23.759000778198242 C-19.038000106811523,1.190999984741211 -24.464000701904297,-18.934999465942383 -24.417999267578125,-31.933000564575195 C-22.809999465942383,-33.26599884033203 -15.41100025177002,-31.562000274658203 -12.645999908447266,-30.222999572753906 C-10.73900032043457,-23.118000030517578 -13.956000328063965,2.6510000228881836 -17.85099983215332,14.387999534606934 C-18.215999603271484,16.878000259399414 -20.993000030517578,22.926000595092773 -18.54800033569336,24.01099967956543 C-15.803999900817871,24.2189998626709 -13.51200008392334,26.951000213623047 -10.777999877929688,27.45400047302246 C-5.579999923706055,28.409000396728516 -0.27799999713897705,28.031999588012695 4.948999881744385,28.711999893188477 C12.069999694824219,29.636999130249023 19.243999481201172,29.406999588012695 26.402999877929688,29.40999984741211 C26.613000869750977,29.410999298095703 26.827999114990234,29.392000198364258 27.034000396728516,29.426000595092773 C28.5,29.66699981689453 30.954999923706055,29.149999618530273 30.878999710083008,31.018999099731445 C30.81599998474121,32.54800033569336 28.391000747680664,31.8439998626709 27.034000396728516,31.850000381469727 C13.758999824523926,31.908000946044922 0.48399999737739563,31.84000015258789 -12.791000366210938,31.92300033569336 C-15.380000114440918,31.940000534057617 -24.073999404907227,33.26599884033203 -25.674999237060547,32.297000885009766 C-30.170000076293945,30.972999572753906 -30.954999923706055,29.222999572753906 -29.503000259399414,23.759000778198242z"/></g></g><g transform="matrix(1,0,0,1,214.20401000976562,580.781982421875)" opacity="1" style="display: block;"><g opacity="1" transform="matrix(1,0,0,1,27.915000915527344,32.00299835205078)"><path fill="rgb(251,175,132)" fill-opacity="1" d=" M25.525999069213867,28.386999130249023 C19.520999908447266,26.785999298095703 -18.065000534057617,20.61199951171875 -16.68000030517578,18.288000106811523 C-18.065000534057617,13.282999992370605 -3.1559998989105225,-25.343000411987305 -2.3310000896453857,-28.56800079345703 C-5.993000030517578,-30.458999633789062 -11.906999588012695,-31.753999710083008 -15.861000061035156,-30.04800033569336 C-15.206000328063965,-25.56399917602539 -23.48699951171875,17.871000289916992 -24.32200050354004,22.81599998474121 C-27.665000915527344,29.965999603271484 26.50200080871582,31.753999710083008 27.665000915527344,30.68199920654297 C27.54800033569336,30.156999588012695 26.926000595092773,28.760000228881836 25.525999069213867,28.386999130249023z"/></g></g><g transform="matrix(1,0,0,1,203.02200317382812,345.3520202636719)" opacity="1" style="display: block;"><g opacity="1" transform="matrix(1,0,0,1,39.3390007019043,118.98600006103516)"><path fill="rgb(109,88,79)" fill-opacity="1" d=" M19.821712493896484,-118.79753875732422 C17.78571128845215,-119.84453582763672 16.146711349487305,-118.60054016113281 14.536711692810059,-117.74453735351562 C6.845711708068848,-113.65254211425781 -0.9326888918876648,-110.39700317382812 -9.484688758850098,-109.13600158691406 C-14.042689323425293,-108.46399688720703 -35.08528137207031,-107.21573638916016 -39.84728240966797,-107.21573638916016 C-41.67127990722656,-106.6307373046875 -3.683000087738037,-61.6879997253418 -4.077000141143799,-60.145999908447266 C-8.109000205993652,-44.37799835205078 -8.37600040435791,-28.20599937438965 -9.095000267028809,-12.10200023651123 C-9.77400016784668,3.1010000705718994 -7.859000205993652,18.274999618530273 -8.35200023651123,33.50699996948242 C-8.520999908447266,38.73500061035156 -15.170000076293945,56.21699905395508 -16.56599998474121,61.000999450683594 C-20.211999893188477,73.50199890136719 -23.208999633789062,86.0469970703125 -21.777000427246094,99.20800018310547 C-21.256999969482422,103.9749984741211 -19.26099967956543,113.76000213623047 -19.2450008392334,113.96199798583984 C-17.552000045776367,114.2490005493164 -2.007999897003174,118.73600006103516 -1.1799999475479126,116.04199981689453 C6.085000038146973,93.64199829101562 10.698688507080078,79.90899658203125 6.085689067840576,57 C5.222688674926758,52.53300094604492 6.203689098358154,45.20199966430664 9.395689010620117,40.02299880981445 C19.06968879699707,19.61199951171875 30.174999237060547,-25.510000228881836 31.02899932861328,-30.149999618530273 C32.56399917602539,-38.49300003051758 39.0880012512207,-69.01599884033203 33.185001373291016,-89.72200012207031 C30.951000213623047,-99.99199676513672 25.573711395263672,-110.14753723144531 19.821712493896484,-118.79753875732422z"/></g></g><g clip-path="url(#__lottie_element_2285)" transform="matrix(0.9989882111549377,0.044972870498895645,-0.044972870498895645,0.9989882111549377,21.227096557617188,-8.669586181640625)" opacity="1" style="display: block;"><g transform="matrix(1,0,0,1,47.682003021240234,376.76800537109375)" opacity="1" style="display: block;"><g opacity="1" transform="matrix(1,0,0,1,49.9379997253418,36.47700119018555)"><path fill="rgb(109,88,79)" fill-opacity="1" d=" M-48.81999969482422,8.920999526977539 C-45.36899948120117,2.7709999084472656 -39.79600143432617,-1.284999966621399 -34.347999572753906,-5.368000030517578 C-20.236000061035156,-15.942000389099121 -4.763000011444092,-24.270000457763672 10.899999618530273,-32.25699996948242 C11.069000244140625,-32.34299850463867 11.312000274658203,-32.28799819946289 11.520000457763672,-32.29800033569336 C49.38100051879883,-46.87099838256836 39.29199981689453,-21.045000076293945 47.249000549316406,-10.190999984741211 C49.6879997253418,-6.863999843597412 47.94900131225586,0.26499998569488525 42.95399856567383,2.8499999046325684 C36.96099853515625,5.297999858856201 30.76099967956543,7.111999988555908 24.552000045776367,8.906000137329102 C15.211999893188477,11.602999687194824 3.984999895095825,11.093000411987305 -5.535999774932861,12.640999794006348 C-9.458999633789062,13.279000282287598 -13.241999626159668,14.586000442504883 -15.946000099182129,14.954000473022461 C-12.531999588012695,14.361000061035156 -8.017999649047852,12.923999786376953 -3.3420000076293945,12.282999992370605 C7.51200008392334,10.795000076293945 18.371999740600586,10.093999862670898 29.280000686645508,11.663000106811523 C30.863000869750977,11.390999794006348 32.36600112915039,12.022000312805176 33.92100143432617,12.069000244140625 C37.58100128173828,13.138999938964844 41.369998931884766,13.810999870300293 44.80400085449219,15.581000328063965 C43.96799850463867,17.976999282836914 37.720001220703125,35.0629997253418 36.106998443603516,35.51900100708008 C31.158000946044922,36.22800064086914 -13.336000442504883,31.98200035095215 -26.660999298095703,29.243000030517578 C-31.02400016784668,28.34600067138672 -35.16400146484375,26.847999572753906 -39.16999816894531,24.93199920654297 C-43.222999572753906,22.993000030517578 -45.9900016784668,19.81100082397461 -48.266998291015625,16.010000228881836 C-49.68899917602539,13.635000228881836 -48.222999572753906,11.241000175476074 -48.81999969482422,8.920999526977539z"/></g></g><g transform="matrix(1,0,0,1,45.90399932861328,421.9169921875)" opacity="1" style="display: block;"><g opacity="1" transform="matrix(1,0,0,1,42.5260009765625,15.557999610900879)"><path fill="rgb(71,53,58)" fill-opacity="1" d=" M42.14500045776367,14.984000205993652 C34.02000045776367,15.307999610900879 -19.917999267578125,10.746000289916992 -28.101999282836914,7.4629998207092285 C-34.196998596191406,5.01800012588501 -39.35200119018555,1.5110000371932983 -41.263999938964844,-5.375999927520752 C-42.2760009765625,-9.020000457763672 -41.2130012512207,-12.170000076293945 -39.62900161743164,-15.307999610900879 C-38.922000885009766,-14.734999656677246 -38.58300018310547,-13.923999786376953 -38.625999450683594,-13.085000038146973 C-38.98099899291992,-6.165999889373779 -34.2400016784668,-2.9079999923706055 -29.108999252319336,-0.1469999998807907 C-20.238000869750977,6.169000148773193 33.92300033569336,11.154000282287598 42.14500045776367,10.640000343322754 C42.09700012207031,13.182000160217285 42.275001525878906,14.979000091552734 42.14500045776367,14.984000205993652z"/></g></g><g transform="matrix(1,0,0,1,137.33599853515625,431.46600341796875)" opacity="1" style="display: block;"><g opacity="1" transform="matrix(1,0,0,1,36.16999816894531,13.645999908447266)"><path fill="rgb(251,175,132)" fill-opacity="1" d=" M31.481000900268555,-3.930000066757202 C29.239999771118164,-3.365000009536743 28.006999969482422,-1.7200000286102295 27.047000885009766,0.21400000154972076 C25.98200035095215,2.361999988555908 24.55699920654297,3.388000011444092 22.02199935913086,2.3529999256134033 C20.400999069213867,1.690999984741211 -15.404000282287598,-10.130999565124512 -23.70199966430664,-13.395999908447266 C-24.204999923706055,-13.230999946594238 -35.91999816894531,-5.785999774932861 -33.86399841308594,4.064000129699707 C-28.499000549316406,5.1570000648498535 -21.760000228881836,5.294000148773193 -16.35099983215332,6.015999794006348 C-2.9489998817443848,7.804999828338623 10.668999671936035,8.352999687194824 23.562000274658203,13.024999618530273 C24.584999084472656,13.395999908447266 25.625999450683594,13.354999542236328 26.677000045776367,13.305000305175781 C31.30299949645996,12.118000030517578 33.244998931884766,5.3379998207092285 34.08100128173828,3.328000068664551 C35.91999816894531,-1.0959999561309814 35.64400100708008,-1.8730000257492065 31.481000900268555,-3.930000066757202z"/></g></g><g transform="matrix(1,0,0,1,137.98300170898438,440.24200439453125)" opacity="1" style="display: block;"><g opacity="1" transform="matrix(1,0,0,1,39.779998779296875,29.985000610351562)"><path fill="rgb(252,148,105)" fill-opacity="1" d=" M38.24700164794922,24.759000778198242 C31.45599937438965,-7.46999979019165 35.22800064086914,-12.687000274658203 35.3120002746582,-21.91699981689453 C35.36899948120117,-28.174999237060547 33.42599868774414,-29.735000610351562 27.225000381469727,-29.04400062561035 C33.779998779296875,-24.749000549316406 26.656999588012695,-17.319000244140625 26.55699920654297,-15.812000274658203 C25.67099952697754,-14.279000282287598 20.639999389648438,-10.746999740600586 19.312000274658203,-13.093000411987305 C18.048999786376953,-16.724000930786133 -28.197999954223633,-20.945999145507812 -38.362998962402344,-21.18199920654297 C-39.529998779296875,-20.17099952697754 -39.2599983215332,-17.283000946044922 -39.270999908447266,-17.065000534057617 C-38.3489990234375,-16.913999557495117 -37.426998138427734,-16.631000518798828 -36.505001068115234,-16.631000518798828 C-22.111000061035156,-16.64299964904785 -7.785999774932861,-15.425000190734863 6.558000087738037,-14.38700008392334 C16.500999450683594,-13.368000030517578 19.83799934387207,-8.413000106811523 20.641000747680664,-6.934000015258789 C21.88599967956543,-5.026000022888184 29.874000549316406,18.56399917602539 30.902000427246094,24.770000457763672 C31.548999786376953,28.679000854492188 31.996999740600586,29.128999710083008 36.03099822998047,29.735000610351562 C38.27799987792969,28.743000030517578 39.529998779296875,27.10700035095215 38.24700164794922,24.759000778198242z"/></g></g><g transform="matrix(1,0,0,1,129.8769989013672,428.5780029296875)" opacity="1" style="display: block;"><g opacity="1" transform="matrix(1,0,0,1,10.088000297546387,10.663000106811523)"><path fill="rgb(226,114,38)" fill-opacity="1" d=" M9.838000297546387,-7.52400016784668 C7.130000114440918,-5.379000186920166 0.28200000524520874,0.1599999964237213 -0.05900000035762787,9.786999702453613 C-2.1649999618530273,9.836999893188477 -9.838000297546387,10.413000106811523 -9.241999626159668,8.895999908447266 C-8.829000473022461,1.6200000047683716 -5.671000003814697,-4.84499979019165 2.4600000381469727,-10.413000106811523 C5.039000034332275,-9.755999565124512 7.448999881744385,-8.666000366210938 9.838000297546387,-7.52400016784668z"/></g></g><g transform="matrix(1,0,0,1,130.11199951171875,447.885986328125)" opacity="1" style="display: block;"><g opacity="1" transform="matrix(1,0,0,1,5.2170000076293945,2.933000087738037)"><path fill="rgb(140,56,29)" fill-opacity="1" d=" M4.577000141143799,-1.7920000553131104 C4.561999797821045,-0.8510000109672546 4.9670000076293945,2.681999921798706 4.916999816894531,2.681999921798706 C1.9570000171661377,2.6510000228881836 -2.8559999465942383,1.9299999475479126 -4.755000114440918,1.6410000324249268 C-4.9679999351501465,0.050999999046325684 -4.868000030517578,-1.3220000267028809 -4.605000019073486,-2.681999921798706 C-1.4470000267028809,-2.38700008392334 -0.3799999952316284,-2.2139999866485596 4.577000141143799,-1.7920000553131104z"/></g></g></g><g transform="matrix(1,0,0,1,78.17100524902344,343.2080078125)" opacity="1" style="display: block;"><g opacity="1" transform="matrix(1,0,0,1,81.19499969482422,118.00700378417969)"><path fill="rgb(73,57,61)" fill-opacity="1" d=" M75.25700378417969,0.20600000023841858 C75.05899810791016,-6.013000011444092 75.66799926757812,-12.21500015258789 75.80699920654297,-18.42099952697754 C76.11699676513672,-32.266998291015625 77.2979965209961,-45.965999603271484 80.93800354003906,-59.37900161743164 C80.94599914550781,-68.04900360107422 78.57099914550781,-73.44599914550781 77.52300262451172,-75.15499877929688 C75.65699768066406,-78.1989974975586 71.98799896240234,-98.14099884033203 45.91699981689453,-102.48699951171875 C44.77199935913086,-102.52999877929688 5.89006233215332,-119.7009506225586 5.552062511444092,-120.08195495605469 C3.541062593460083,-118.34395599365234 1.714187502861023,-115.79862213134766 0.8031874895095825,-113.36862182617188 C-1.0688124895095825,-109.60962677001953 -2.8458125591278076,-105.78162384033203 -6.576812267303467,-103.39862823486328 C-8.30581283569336,-102.47162628173828 -48.591312408447266,-84.63184356689453 -50.22631072998047,-83.5178451538086 C-24.316312789916992,-83.0368423461914 -10.814001083374023,-57.654842376708984 -19.774002075195312,-49.952842712402344 C-25.884000778198242,-48.037845611572266 -67.762939453125,-42.65259552001953 -75.783935546875,-40.10759353637695 C-59.70793914794922,-43.80459213256836 -48.67319107055664,-40.012447357177734 -31.788312911987305,-38.571842193603516 C-30.316312789916992,-38.79584503173828 -29.078311920166016,-39.07084274291992 -27.39231300354004,-39.42284393310547 C-23.939311981201172,-40.63484191894531 28.767000198364258,-66.79900360107422 35.49100112915039,-69.41899871826172 C44.064998626708984,-71.71399688720703 59.145999908447266,-77.16500091552734 61.64799880981445,-66.44000244140625 C61.29100036621094,-43.917999267578125 60.064998626708984,-29.496999740600586 65.4469985961914,23.9689998626709 C66.72000122070312,31.961999893188477 67.24700164794922,40.099998474121094 65.68399810791016,48.191001892089844 C64.60399627685547,50.82600021362305 63.53300094604492,53.4640007019043 62.441001892089844,56.09400177001953 C53.06800079345703,79.41600036621094 55.09700012207031,95.79199981689453 55.21200180053711,116.54900360107422 C58.3849983215332,117.17500305175781 63.207000732421875,117.37899780273438 66.0270004272461,117.75700378417969 C66.04100036621094,117.73500061035156 66.02899932861328,117.61299896240234 65.9990005493164,117.4209976196289 C66.06900024414062,116.83200073242188 63.08399963378906,104.25900268554688 62.32600021362305,96.8010025024414 C62.191001892089844,95.47000122070312 62.125,94.3010025024414 62.1609992980957,93.4000015258789 C62.465999603271484,85.73999786376953 63.47100067138672,78.10099792480469 65.87000274658203,70.70700073242188 C67.78900146484375,64.79399871826172 75.51499938964844,45.487998962402344 75.69100189208984,42.18000030517578 C75.91899871826172,37.87099838256836 76.33999633789062,33.555999755859375 76.19300079345703,29.242000579833984 C75.86499786376953,19.562999725341797 75.56500244140625,9.885000228881836 75.25700378417969,0.20600000023841858z"/></g></g><g transform="matrix(1,0,0,1,225.1790008544922,578.1849975585938)" opacity="1" style="display: block;"><g opacity="1" transform="matrix(1,0,0,1,8.126999855041504,3.1410000324249268)"><path fill="rgb(224,105,35)" fill-opacity="1" d=" M6.48199987411499,2.8919999599456787 C2.690999984741211,2.5850000381469727 -3.690000057220459,1.6230000257492065 -7.480999946594238,1.315999984741211 C-7.480999946594238,0.824999988079071 -7.877999782562256,-1.4199999570846558 -7.868000030517578,-2.8919999599456787 C-5.46999979019165,-2.684000015258789 6.715000152587891,-1.402999997138977 7.877999782562256,-0.9919999837875366 C7.548999786376953,0.05700000002980232 6.998000144958496,1.4129999876022339 6.48199987411499,2.8919999599456787z"/></g></g><g transform="matrix(1,0,0,1,214.1510009765625,577.3349609375)" opacity="1" style="display: block;"><g opacity="1" transform="matrix(1,0,0,1,6.177999973297119,2.8269999027252197)"><path fill="rgb(140,56,29)" fill-opacity="1" d=" M-5.749000072479248,-2.3980000019073486 C-3.6040000915527344,-2.5769999027252197 3.2769999504089355,-1.7719999551773071 5.109000205993652,-1.7280000448226929 C5.367000102996826,0.07699999958276749 5.617000102996826,0.5270000100135803 5.927999973297119,2.5769999027252197 C1.6820000410079956,1.5789999961853027 -1.246000051498413,1.7239999771118164 -5.843999862670898,0.8669999837875366 C-5.927999973297119,-0.47600001096725464 -5.822000026702881,-1.2890000343322754 -5.749000072479248,-2.3980000019073486z"/></g></g><g clip-path="url(#__lottie_element_2298)" transform="matrix(0.9996011257171631,0.028242580592632294,-0.028242580592632294,0.9996011257171631,10.676727294921875,-5.922576904296875)" opacity="1" style="display: block;"><g transform="matrix(1,0,0,1,174.2969970703125,281.01800537109375)" opacity="1" style="display: block;"><g opacity="1" transform="matrix(1,0,0,1,28.690000534057617,31.676000595092773)"><path fill="rgb(196,208,204)" fill-opacity="1" d=" M-28.440000534057617,20.225000381469727 C-20.488000869750977,12.105999946594238 -17.51799964904785,1.277999997138977 -20.083999633789062,-9.449000358581543 C-21.107999801635742,-13.727999687194824 -25.976999282836914,-26.29599952697754 -27.05299949645996,-30.562000274658203 C-25.5310001373291,-31.424999237060547 -19.06100082397461,-27.90399932861328 -17.601999282836914,-27.430999755859375 C-13.788999557495117,-24.214000701904297 -12.211000442504883,-20.996999740600586 -10.968000411987305,-13.534000396728516 C-9.795000076293945,-6.486999988555908 -8.892000198364258,0.6159999966621399 -6.8470001220703125,7.491000175476074 C1.0470000505447388,19.80699920654297 28.440000534057617,22.437999725341797 28.26099967956543,24.226999282836914 C12.217000007629395,31.426000595092773 -22.323999404907227,27.957000732421875 -28.440000534057617,20.225000381469727z"/></g></g><g transform="matrix(1,0,0,1,184.02999877929688,275.1910095214844)" opacity="1" style="display: block;"><g opacity="1" transform="matrix(1,0,0,1,33.064998626708984,31.565000534057617)"><path fill="rgb(233,231,209)" fill-opacity="1" d=" M25.075000762939453,-4.116000175476074 C25.378000259399414,-6.5370001792907715 32.814998626708984,-21.829999923706055 30.69499969482422,-23.875999450683594 C30.03499984741211,-25.68899917602539 20.679000854492188,-20.833999633789062 19.207000732421875,-23.13800048828125 C13.465999603271484,-26.716999053955078 8.008999824523926,-31.315000534057617 1.059999942779541,-28.82200050354004 C0.35100001096725464,-28.566999435424805 -25.37299919128418,-19.363000869750977 -32.78200149536133,-19.229000091552734 C-32.814998626708984,-19.128999710083008 -27.363000869750977,-14.723999977111816 -26.645999908447266,-10.34000015258789 C-25.261999130249023,-1.878999948501587 -24.229999542236328,6.658999919891357 -21.711999893188477,14.907999992370605 C-17.70800018310547,27.48699951171875 10.562999725341797,29.73200035095215 13.82699966430664,29.996000289916992 C16.195999145507812,31.315000534057617 29.53700065612793,27.70400047302246 30.29800033569336,26.05699920654297 C21.884000778198242,10.322999954223633 24.104000091552734,3.6480000019073486 25.075000762939453,-4.116000175476074z"/></g></g><g transform="matrix(1,0,0,1,182.33900451660156,332.56298828125)" opacity="1" style="display: block;"><g opacity="1" transform="matrix(1,0,0,1,40.38399887084961,16.281999588012695)"><path fill="rgb(228,109,38)" fill-opacity="1" d=" M24.66900062561035,-16.033000946044922 C23.606000900268555,-15.456000328063965 -30.367000579833984,-2.2139999866485596 -38.23500061035156,-0.9169999957084656 C-39.599998474121094,-0.10000000149011612 -39.82699966430664,3.624000072479248 -40.13399887084961,5.645999908447266 C-1.8170000314712524,16.031999588012695 18.65999984741211,5.8429999351501465 26.92300033569336,3.059999942779541 C31.51799964904785,1.5119999647140503 35.5,-1.343999981880188 40.13399887084961,-2.744999885559082 C38.667999267578125,-6.558000087738037 30.66699981689453,-11.656999588012695 24.66900062561035,-16.033000946044922z"/></g></g><g transform="matrix(1,0,0,1,162.25799560546875,332.13702392578125)" opacity="1" style="display: block;"><g opacity="1" transform="matrix(1,0,0,1,35.15700149536133,15.38599967956543)"><path fill="rgb(140,56,29)" fill-opacity="1" d=" M33.83300018310547,-10.602999687194824 C13.875,-5.534999847412109 -11.732999801635742,-6.730000019073486 -22.466999053955078,-15.020999908447266 C-23.09600067138672,-15.13599967956543 -31.5939998626709,-8.036999702453613 -34.90700149536133,-4.065000057220459 C-33.73400115966797,-3.1549999713897705 -32.62300109863281,-2.502000093460083 -32.32500076293945,-2.0250000953674316 C-31.452999114990234,-1.4769999980926514 -30.548999786376953,-0.9589999914169312 -29.663999557495117,-0.4560000002384186 C-25.572999954223633,1.8669999837875366 -4.64300012588501,15.13599967956543 13.052000045776367,9.472999572753906 C27.947999954223633,5.304999828338623 34.90700149536133,-9.538000106811523 33.83300018310547,-10.602999687194824z"/></g></g><g transform="matrix(1,0,0,1,250.67800903320312,232.32901000976562)" opacity="1" style="display: block;"><g opacity="1" transform="matrix(1,0,0,1,82.26300048828125,71.38800048828125)"><path fill="rgb(252,148,105)" fill-opacity="1" d=" M42.939998626708984,58.266998291015625 C37.03200149536133,55.76499938964844 -17.95599937438965,38.88999938964844 -38.1619987487793,29.079999923706055 C-43.88600158691406,26.301000595092773 -48.665000915527344,22.441999435424805 -52.40399932861328,17.361000061035156 C-61.724998474121094,4.697000026702881 -70.00299835205078,-8.574999809265137 -75.64900207519531,-23.34600067138672 C-76.3759994506836,-25.249000549316406 -79.0459976196289,-45.58300018310547 -80.91300201416016,-50.95600128173828 C-82.01200103759766,-54.11800003051758 -81.20999908447266,-64.99299621582031 -81.44599914550781,-68.13200378417969 C-81.52400207519531,-69.1719970703125 -81.48300170898438,-70.4229965209961 -80.28099822998047,-70.81700134277344 C-79.29900360107422,-71.13800048828125 -78.4729995727539,-70.37100219726562 -77.83300018310547,-69.66999816894531 C-74.81500244140625,-66.36399841308594 -72.57499694824219,-62.555999755859375 -70.85700225830078,-58.446998596191406 C-64.41899871826172,-43.053001403808594 -58.849998474121094,-27.384000778198242 -55.92499923706055,-10.885000228881836 C-53.48899841308594,2.8510000705718994 -45.5359992980957,12.821999549865723 -34.356998443603516,20.547000885009766 C-21.05299949645996,29.739999771118164 42.69499969482422,53.36600112915039 42.86800003051758,53.4010009765625 C43.42499923706055,53.35200119018555 57.50899887084961,71.13800048828125 76.91899871826172,48.87300109863281 C79.56099700927734,45.6870002746582 74.02200317382812,32.19300079345703 73.74500274658203,30.86400032043457 C73.51100158691406,29.739999771118164 73.11000061035156,28.538000106811523 74.18399810791016,28.406999588012695 C75.40499877929688,28.256999969482422 76.60299682617188,30.19099998474121 76.87300109863281,30.909000396728516 C77.63099670410156,32.42499923706055 82.01300048828125,45.96799850463867 80.58300018310547,49.81100082397461 C79.95099639892578,53.303001403808594 69.38999938964844,59.52399826049805 63.39099884033203,62.55099868774414 C59.558998107910156,64.48500061035156 55.909000396728516,64.61199951171875 51.999000549316406,62.470001220703125 C49.09700012207031,60.87900161743164 46.38199996948242,58.74300003051758 42.939998626708984,58.266998291015625z"/></g></g><g transform="matrix(1,0,0,1,241.94898986816406,216.94000244140625)" opacity="1" style="display: block;"><g opacity="1" transform="matrix(1,0,0,1,83.09700012207031,74.37899780273438)"><path fill="rgb(251,175,132)" fill-opacity="1" d=" M81.86399841308594,53.316001892089844 C80.61299896240234,47.14899826049805 75.25,42.23400115966797 73.3740005493164,42.85900115966797 C71.40699768066406,44.020999908447266 77.3949966430664,48.132999420166016 77.53199768066406,53.249000549316406 C78.51499938964844,61.29199981689453 75.29000091552734,64.16899871826172 73.1500015258789,64.80000305175781 C74.98200225830078,58.8120002746582 73.81999969482422,48.803001403808594 68.10099792480469,49.38399887084961 C66.98300170898438,50.00899887084961 70.81500244140625,54.30099868774414 70.87000274658203,55.63999938964844 C72.97000122070312,65.87300109863281 58.70600128173828,65.6969985961914 56.42300033569336,62.7599983215332 C54.71799850463867,60.56700134277344 55.345001220703125,55.159000396728516 60.117000579833984,51.85599899291992 C61.125,51.108001708984375 62.737998962402344,47.20899963378906 60.7130012512207,47.327999114990234 C58.082000732421875,48.047000885009766 54.10300064086914,50.30400085449219 53.02899932861328,52.71200180053711 C51.375999450683594,56.42300033569336 51.41299819946289,60.194000244140625 51.625999450683594,64.16000366210938 C48.321998596191406,62.27899932861328 -11.786999702453613,29.274999618530273 -23.55500030517578,22.716999053955078 C-27.687000274658203,20.413999557495117 -30.33799934387207,17.118999481201172 -31.746999740600586,12.444999694824219 C-39.54999923706055,-13.449000358581543 -50.608001708984375,-37.98699951171875 -63.0880012512207,-61.92499923706055 C-67.28299713134766,-69.9729995727539 -73.77200317382812,-74.08899688720703 -82.84700012207031,-74.12799835205078 C-82.84700012207031,-68.06300354003906 -74.62699890136719,-43.72800064086914 -71.39800262451172,-46.3489990234375 C-70.69499969482422,-46.979000091552734 -72.64399719238281,-54.11199951171875 -72.572998046875,-58.04999923706055 C-68.6719970703125,-54.40399932861328 -66.23300170898438,-51.10599899291992 -64.48999786376953,-46.9630012512207 C-57.96099853515625,-31.44700050354004 -52.090999603271484,-15.699000358581543 -49.23400115966797,0.9909999966621399 C-47.4900016784668,11.180999755859375 -42.98500061035156,20.027000427246094 -35.47100067138672,27.020999908447266 C-24.94099998474121,36.821998596191406 -12.267000198364258,43.242000579833984 0.921999990940094,48.689998626708984 C13.095999717712402,53.71799850463867 49.86899948120117,65.87300109863281 51.229000091552734,66.16999816894531 C56.125,71.77100372314453 64.0780029296875,74.12799835205078 68.89099884033203,73.17400360107422 C80.79100036621094,67.61599731445312 82.84700012207031,59.393001556396484 81.86399841308594,53.316001892089844z"/></g></g><g transform="matrix(1,0,0,1,5.55999755859375,217.31300354003906)" opacity="1" style="display: block;"><g opacity="1" transform="matrix(1,0,0,1,86.86299896240234,76.31300354003906)"><path fill="rgb(252,148,105)" fill-opacity="1" d=" M86.30899810791016,-50.43899917602539 C86.20099639892578,-50.95899963378906 84.44999694824219,-73.09400177001953 79.65899658203125,-76.06400299072266 C64.36299896240234,-75.03600311279297 58.507999420166016,-63.59199905395508 56.84199905395508,-59.40999984741211 C56.45600128173828,-59.053001403808594 35.61399841308594,12.819999694824219 35.17300033569336,15.138999938964844 C35.46900177001953,16.25 35.86800003051758,16.799999237060547 36.68299865722656,17.46500015258789 C40.48500061035156,20.56999969482422 40.90399932861328,23.399999618530273 38.183998107910156,27.56999969482422 C36.96200180053711,29.44300079345703 35.430999755859375,30.98699951171875 33.577999114990234,32.2760009765625 C28.784000396728516,35.61000061035156 23.444000244140625,37.87699890136719 18.15399932861328,40.21699905395508 C-0.09300000220537186,48.29199981689453 -43.965999603271484,66.01899719238281 -47.81999969482422,66.76799774169922 C-51.952999114990234,67.57099914550781 -62.63100051879883,72.28900146484375 -72.25299835205078,63.582000732421875 C-77.18199920654297,58.064998626708984 -69.63600158691406,46.40700149536133 -71.54299926757812,43.53300094604492 C-72.4280014038086,42.196998596191406 -78.78199768066406,55.507999420166016 -77.58999633789062,63.1349983215332 C-83.96600341796875,61.40700149536133 -77.1240005493164,42.69200134277344 -78.98999786376953,42.09000015258789 C-81.58200073242188,41.25400161743164 -86.61299896240234,58.56800079345703 -80.44599914550781,66.6449966430664 C-76.96099853515625,70.24400329589844 -62.24800109863281,76.06400299072266 -46.349998474121094,72.86299896240234 C-40.441001892089844,69.04100036621094 -33.358001708984375,64.87200164794922 -24.530000686645508,62.15599822998047 C-5.526000022888184,56.31100082397461 13.4350004196167,50.375 31.482999801635742,41.891998291015625 C37.53099822998047,39.04899978637695 43.24700164794922,35.83399963378906 47.444000244140625,30.375999450683594 C57.72700119018555,17.0049991607666 64.74600219726562,2.0769999027252197 68.89700317382812,-14.218999862670898 C70.26799774169922,-19.604999542236328 71.3489990234375,-25.06399917602539 72.58399963378906,-30.485000610351562 C72.68399810791016,-30.923999786376953 72.48100280761719,-31.73900032043457 73.22599792480469,-31.624000549316406 C73.5469970703125,-31.573999404907227 73.75700378417969,-30.79800033569336 74.01699829101562,-30.351999282836914 C75.22899627685547,-29.18400001525879 76.53399658203125,-29.641000747680664 77.8270034790039,-30.155000686645508 C81.49199676513672,-31.61400032043457 83.7030029296875,-34.4109992980957 85.072998046875,-38.005001068115234 C86.61299896240234,-42.042999267578125 86.54299926757812,-46.23099899291992 86.30899810791016,-50.43899917602539z"/></g></g><g transform="matrix(1,0,0,1,18.33599853515625,308.5150146484375)" opacity="1" style="display: block;"><g opacity="1" transform="matrix(1,0,0,1,57.96099853515625,28.985000610351562)"><path fill="rgb(251,175,132)" fill-opacity="1" d=" M54.630001068115234,-26.395999908447266 C53.5260009765625,-27.18400001525879 52.409000396728516,-27.954999923706055 51.29899978637695,-28.733999252319336 C48.82600021362305,-24.895000457763672 45.21500015258789,-22.468000411987305 41.23400115966797,-20.42300033569336 C26.555999755859375,-12.881999969482422 -14.892999649047852,11.543000221252441 -21.922000885009766,14.432000160217285 C-22.618999481201172,14.9399995803833 -27.777000427246094,17.54599952697754 -28.753999710083008,16.534000396728516 C-30.80900001525879,16.042999267578125 -30.757999420166016,7.409999847412109 -34.4739990234375,4.901000022888184 C-35.689998626708984,3.7920000553131104 -37.83599853515625,2.1019999980926514 -39.12099838256836,2.8459999561309814 C-41.547000885009766,4.88100004196167 -39.01599884033203,6.901000022888184 -36.58399963378906,8.692999839782715 C-35.44900131225586,9.529000282287598 -34.388999938964844,11.666999816894531 -34.74100112915039,13.309000015258789 C-34.65700149536133,17.815000534057617 -35.99300003051758,20.422000885009766 -46.07099914550781,20.75 C-57.71099853515625,18.635000228881836 -49.060001373291016,4.927999973297119 -50.202999114990234,3.9779999256134033 C-51.32400131225586,3.0460000038146973 -57.415000915527344,10.883999824523926 -54.31399917602539,19.52899932861328 C-49.84600067138672,28.735000610351562 -35.02399826049805,24.764999389648438 -33.566001892089844,24.479999542236328 C-29.38800048828125,23.663999557495117 9.859000205993652,7.184000015258789 23.378000259399414,1.878999948501587 C32.96099853515625,-1.8819999694824219 42.61800003051758,-5.505000114440918 51.18000030517578,-11.40999984741211 C53.957000732421875,-13.324999809265137 55.82099914550781,-15.932000160217285 56.816001892089844,-19.13800048828125 C57.71099853515625,-22.02400016784668 57.22700119018555,-24.542999267578125 54.630001068115234,-26.395999908447266z"/></g></g><g transform="matrix(1,0,0,1,172.35899353027344,215.62298583984375)" opacity="1" style="display: block;"><g opacity="1" transform="matrix(1,0,0,1,46.79600143432617,34.17900085449219)"><path fill="rgb(233,231,209)" fill-opacity="1" d=" M31.878999710083008,-5.73199987411499 C28.05900001525879,-13.055000305175781 25.517000198364258,-19.541000366210938 23.73900032043457,-27.584999084472656 C23.51099967956543,-28.618000030517578 21.648000717163086,-32.32699966430664 21.233999252319336,-32.617000579833984 C19.45199966430664,-33.92900085449219 17.424999237060547,-33.11399841308594 15.51099967956543,-33.27299880981445 C15.295999526977539,-33.00199890136719 15.184000015258789,-32.69300079345703 15.180000305175781,-32.34600067138672 C15.819000244140625,-29.687999725341797 16.554000854492188,-27.05299949645996 16.854000091552734,-24.325000762939453 C18.298999786376953,-11.189000129699707 9.336000442504883,-1.9579999446868896 -3.75600004196167,-3.1050000190734863 C-4.809999942779541,-3.197999954223633 -5.89300012588501,-3.378000020980835 -6.7829999923706055,-2.734999895095825 C-6.868000030517578,-2.7820000648498535 -6.952000141143799,-2.828000068664551 -7.0370001792907715,-2.872999906539917 C-10.310999870300293,-3.9240000247955322 -13.649999618530273,-4.8379998207092285 -16.30900001525879,-7.203999996185303 C-18.93600082397461,-8.95199966430664 -21.281999588012695,-11.017999649047852 -23.523000717163086,-13.241000175476074 C-28.18600082397461,-17.865999221801758 -31.485000610351562,-23.472000122070312 -35.02399826049805,-28.908000946044922 C-36.00400161743164,-30.413999557495117 -36.992000579833984,-31.882999420166016 -38.73899841308594,-32.604000091552734 C-42.16899871826172,-32.474998474121094 -46.54600143432617,-32.31399917602539 -45.90999984741211,-32.270999908447266 C-43.2859992980957,-31.132999420166016 -43.11199951171875,-28.81999969482422 -42.37200164794922,-26.1200008392334 C-41.47999954223633,-22.86400032043457 -40.78499984741211,-19.584999084472656 -40.2859992980957,-16.243999481201172 C-40.029998779296875,-14.532999992370605 -40.58000183105469,-1.9930000305175781 -39.54899978637695,0.9639999866485596 C-41.21799850463867,10.170000076293945 -46.2760009765625,33.928001403808594 -16.729999542236328,32.24399948120117 C-12.944999694824219,32.2859992980957 -9.38700008392334,31.018999099731445 -5.928999900817871,29.801000595092773 C-4.165999889373779,29.517000198364258 -3.809000015258789,29.466999053955078 -3.2009999752044678,30.30299949645996 C-2.9019999504089355,30.430999755859375 -2.5850000381469727,30.48699951171875 -2.26200008392334,30.464000701904297 C1.7660000324249268,28.684999465942383 6.01200008392334,28.36199951171875 10.350000381469727,28.575000762939453 C15.074999809265137,28.80699920654297 19.704999923706055,29.922000885009766 24.422000885009766,30.121999740600586 C30.32200050354004,32.08599853515625 37.74399948120117,26.267000198364258 38.36800003051758,25.033000946044922 C46.54600143432617,12.581999778747559 35.435001373291016,1.0839999914169312 31.878999710083008,-5.73199987411499z"/></g></g><g transform="matrix(1,0,0,1,167.26800537109375,236.4879913330078)" opacity="1" style="display: block;"><g opacity="1" transform="matrix(1,0,0,1,45.167999267578125,29.70199966430664)"><path fill="rgb(196,208,204)" fill-opacity="1" d=" M26.007999420166016,12.723999977111816 C20.645999908447266,10.762999534606934 16.51099967956543,4.415999889373779 5.63100004196167,9.064000129699707 C0.0010000000474974513,15.319999694824219 -43.43600082397461,29.31100082397461 -32.7599983215332,-26.906999588012695 C-33.07600021362305,-23.572999954223633 -32.3489990234375,-20.253999710083008 -32.637001037597656,-16.923999786376953 C-33.263999938964844,-9.682000160217285 -36.56100082397461,-5.314000129699707 -44.667999267578125,-0.5450000166893005 C-41.88600158691406,4.833000183105469 -40.051998138427734,11.520000457763672 -37.70199966430664,13.357000350952148 C-23.434999465942383,29.93600082397461 -5.349999904632568,21.22599983215332 -3.99399995803833,20.770999908447266 C2.9149999618530273,17.798999786376953 6.815999984741211,11.326000213623047 8.937000274658203,11.119000434875488 C9.076000213623047,11.12399959564209 12.312000274658203,13.293000221252441 15.821000099182129,14.553000450134277 C18.44300079345703,15.494999885559082 20.937999725341797,16.788000106811523 23.489999771118164,17.924999237060547 C30.44700050354004,21.218000411987305 32.994998931884766,18.49799919128418 33.869998931884766,18.05299949645996 C36.435001373291016,16.750999450683594 44.332000732421875,11.211000442504883 44.917999267578125,8.888999938964844 C43.446998596191406,10.010000228881836 34.18600082397461,16.035999298095703 26.007999420166016,12.723999977111816z"/></g></g><g transform="matrix(1,0,0,1,182.93499755859375,187.71701049804688)" opacity="1" style="display: block;"><g opacity="1" transform="matrix(1,0,0,1,26.131000518798828,30.020999908447266)"><path fill="rgb(251,175,132)" fill-opacity="1" d=" M25.631999969482422,-0.7120000123977661 C25.625999450683594,-0.8790000081062317 25.614999771118164,-1.0449999570846558 25.600000381469727,-1.2100000381469727 C24.555999755859375,-1.1929999589920044 23.488000869750977,-1.309999942779541 22.47100067138672,-1.1339999437332153 C18.23200035095215,-0.4020000100135803 13.041000366210938,-3.502000093460083 11.684000015258789,-7.6570000648498535 C10.697999954223633,-9.737000465393066 9.267000198364258,-18.31800079345703 8.99899959564209,-23.143999099731445 C8.807999610900879,-24.60099983215332 7.936999797821045,-28.22599983215332 7.936999797821045,-28.334999084472656 C5.708000183105469,-29.770999908447266 1.5520000457763672,-24.341999053955078 0.4740000069141388,-22.33099937438965 C-0.27799999713897705,-20.929000854492188 -0.4650000035762787,-19.340999603271484 -0.8140000104904175,-17.81100082397461 C-2.1470000743865967,-11.963000297546387 -4.559000015258789,-6.684999942779541 -9.092000007629395,-2.5989999771118164 C-13.295000076293945,1.190999984741211 -16.195999145507812,1.5230000019073486 -21.240999221801758,-1.027999997138977 C-21.628000259399414,-1.2239999771118164 -21.65399932861328,-0.7170000076293945 -22.075000762939453,-0.7120000123977661 C-23.115999221801758,-0.7120000123977661 -23.861000061035156,-0.7120000123977661 -25.082000732421875,-0.6100000143051147 C-25.881000518798828,0.28999999165534973 -24.750999450683594,1.8890000581741333 -24.28499984741211,2.684000015258789 C-19.434999465942383,10.960000038146973 -14.038000106811523,18.759000778198242 -5.5370001792907715,23.788999557495117 C1.5499999523162842,28.30500030517578 8.95300006866455,29.770999908447266 16.85700035095215,26.02199935913086 C18.492000579833984,25.246000289916992 23.128999710083008,19.867000579833984 23.82200050354004,18.22100067138672 C25.770999908447266,13.593999862670898 25.8799991607666,8.776000022888184 24.736000061035156,3.940999984741211 C24.320999145507812,2.188999891281128 24.25200080871582,0.6330000162124634 25.631999969482422,-0.7120000123977661z M19.913000106811523,20.902999877929688 C19.909000396728516,20.90399932861328 19.9060001373291,20.90399932861328 19.902000427246094,20.90399932861328 C19.9060001373291,20.902000427246094 19.908000946044922,20.899999618530273 19.910999298095703,20.898000717163086 C19.910999298095703,20.899999618530273 19.91200065612793,20.902000427246094 19.913000106811523,20.902999877929688z M0.4749999940395355,-22.33099937438965 C-0.6779999732971191,-21.233999252319336 -0.4650000035762787,-19.340999603271484 -0.8140000104904175,-17.81100082397461"/></g></g><g transform="matrix(1,0,0,1,240.13999938964844,216.93499755859375)" opacity="1" style="display: block;"><g opacity="1" transform="matrix(1,0,0,1,7.275000095367432,15.868000030517578)"><path fill="rgb(221,113,35)" fill-opacity="1" d=" M-7.025000095367432,-15.618000030517578 C-6.421000003814697,-15.616000175476074 -5.374000072479248,-15.607999801635742 -4.769999980926514,-15.605999946594238 C-2.0899999141693115,2.1440000534057617 2.690999984741211,5.763000011444092 6.548999786376953,14.387999534606934 C7.025000095367432,15.619000434875488 -4.056000232696533,5.510000228881836 -7.025000095367432,-15.618000030517578z"/></g></g><g transform="matrix(1,0,0,1,180.16600036621094,216.26300048828125)" opacity="1" style="display: block;"><g opacity="1" transform="matrix(1,0,0,1,29.31100082397461,16.496000289916992)"><path fill="rgb(230,114,37)" fill-opacity="1" d=" M25.18899917602539,-16.229999542236328 C21.954999923706055,-16.113000869750977 23.930999755859375,-16.246000289916992 21.81100082397461,-16.115999221801758 C23.916000366210938,-9.031000137329102 24.882999420166016,1.309999942779541 19.54199981689453,7.2729997634887695 C17.482999801635742,9.890000343322754 14.63599967956543,10.885000228881836 11.484000205993652,11.609000205993652 C5.072000026702881,13.083000183105469 -0.4309999942779541,10.843000411987305 -5.839000225067139,7.906000137329102 C-14.317000389099121,2.0799999237060547 -20.77400016784668,-6.4730000495910645 -25.239999771118164,-15.626999855041504 C-26.445999145507812,-15.656999588012695 -27.621999740600586,-15.47599983215332 -29.06100082397461,-15.560999870300293 C-26.93199920654297,-12.321000099182129 -24.628000259399414,-9.1899995803833 -22.660999298095703,-5.849999904632568 C-14.425000190734863,8.130999565124512 -0.7950000166893005,16.246999740600586 6.5329999923706055,15.663999557495117 C13.979000091552734,15.970999717712402 20.615999221801758,13.633999824523926 24.507999420166016,6.703000068664551 C28.56599998474121,-0.5220000147819519 29.059999465942383,-8.621000289916992 25.18899917602539,-16.229999542236328z"/></g></g><g transform="matrix(1,0,0,1,166.18899536132812,217.06100463867188)" opacity="1" style="display: block;"><g opacity="1" transform="matrix(1,0,0,1,9.14900016784668,24.54599952697754)"><path fill="rgb(226,111,39)" fill-opacity="1" d=" M0.9890000224113464,-24.29599952697754 C0.42399999499320984,-24.222999572753906 -0.871999979019165,-24.18000030517578 -3.256999969482422,-24.04599952697754 C0.9900000095367432,-19.680999755859375 8.89900016784668,21.549999237060547 -8.89900016784668,21.66699981689453 C-8.826000213623047,22.659000396728516 -8.468000411987305,23.531999588012695 -7.820000171661377,24.28700065612793 C-4.639999866485596,24.29599952697754 2.2009999752044678,19.898000717163086 3.7860000133514404,13.536999702453613 C8.050999641418457,3.3480000495910645 2.9769999980926514,-18.465999603271484 0.9890000224113464,-24.29599952697754z"/></g></g><g transform="matrix(1,0,0,1,200.90199279785156,220.29200744628906)" opacity="1" style="display: block;"><g opacity="1" transform="matrix(1,0,0,1,12.324000358581543,3.00600004196167)"><path fill="rgb(252,148,105)" fill-opacity="1" d=" M12.074000358581543,-1.190000057220459 C10.157999992370605,-1.0240000486373901 8.493000030517578,-0.11500000208616257 6.751999855041504,0.5809999704360962 C2.5480000972747803,2.259999990463257 -3.8519999980926514,2.75600004196167 -6.376999855041504,2.01200008392334 C-8.163999557495117,1.1360000371932983 -8.40999984741211,0.20900000631809235 -12.074000358581543,-0.3499999940395355 C-11.717000007629395,-1.2879999876022339 -9.928999900817871,-1.6469999551773071 -9.347999572753906,-1.4900000095367432 C-2.921999931335449,0.25200000405311584 2.805000066757202,0.652999997138977 9.01200008392334,-2.244999885559082 C10.107000350952148,-2.75600004196167 11.262999534606934,-2.1640000343322754 12.074000358581543,-1.190000057220459z"/></g></g><g transform="matrix(1,0,0,1,121.64399719238281,129.67201232910156)" opacity="1" style="display: block;"><g opacity="1" transform="matrix(1,0,0,1,18.36199951171875,35.02299880981445)"><path fill="rgb(226,111,39)" fill-opacity="1" d=" M-0.0124312499538064,33.96974563598633 C-1.8434312343597412,34.01174545288086 -3.053431272506714,32.881744384765625 -4.3844313621521,31.773744583129883 C13.686569213867188,17.542743682861328 -1.433249831199646,6.556580066680908 -3.6558125019073486,3.08630633354187 C-12.885724067687988,-11.143022537231445 -4.581109523773193,-33.56174850463867 23.105234146118164,-32.76288986206055 C22.592233657836914,-29.00689125061035 23.358234405517578,-25.341890335083008 23.884233474731445,-21.65389060974121 C7.421718597412109,-18.1403751373291 15.84318733215332,4.620296955108643 15.310187339782715,10.175296783447266 C14.31918716430664,20.50029754638672 19.561569213867188,27.167743682861328 -0.0124312499538064,33.96974563598633z"/></g></g><g transform="matrix(1,0,0,1,142.52301025390625,102.32400512695312)" opacity="1" style="display: block;"><g opacity="1" transform="matrix(1,0,0,1,36.75400161743164,55.53900146484375)"><path fill="rgb(140,56,29)" fill-opacity="1" d=" M-3.001230239868164,-43.99700164794922 C-6.026230335235596,-40.50199890136719 -7.440000057220459,-36.20399856567383 -8.87600040435791,-31.94700050354004 C-9.470000267028809,-30.187000274658203 -9.64799976348877,-28.285999298095703 -10.015000343322754,-26.450000762939453 C-11.86299991607666,-26.81999969482422 -13.720999717712402,-26.885000228881836 -15.58899974822998,-26.632999420166016 C-18.43199920654297,-24.047000885009766 -18.743000030517578,-19.242000579833984 -16.319000244140625,-15.239999771118164 C-11.538999557495117,-14.008999824523926 -8.812999725341797,-10.51099967956543 -7.77400016784668,-8.029999732971191 C-5.940999984741211,-3.861999988555908 12.922442436218262,33.75633239746094 -29.85162353515625,51.718589782714844 C-35.44462203979492,55.962589263916016 6.4742302894592285,56.012001037597656 14.872230529785156,51.70600128173828 C18.97623062133789,43.893001556396484 20.402000427246094,35.42900085449219 21.082000732421875,26.757999420166016 C21.358999252319336,23.226999282836914 18.05299949645996,14.692000389099121 13.407999992370605,12.020000457763672 C9.631999969482422,9.847000122070312 7.182000160217285,10.5600004196167 3.4579999446868896,8.414999961853027 C1.8200000524520874,7.9679999351501465 -1.097000002861023,6.945000171661377 -1.7929999828338623,5.857999801635742 C-2.9010000228881836,4.130000114440918 -3.5829999446868896,2.243000030517578 -3.740999937057495,0.23800000548362732 C-3.9489998817443848,-2.4140000343322754 -3.500999927520752,-5.008999824523926 -0.6240000128746033,-6.0229997634887695 C2.181999921798706,-7.013000011444092 3.9159998893737793,-5.067999839782715 5.409999847412109,-3.0829999446868896 C6.363999843597412,-1.815999984741211 6.7230000495910645,-0.21199999749660492 7.507999897003174,1.156999945640564 C8.380000114440918,2.6760001182556152 9.159000396728516,4.998000144958496 11.236000061035156,4.334000110626221 C13.472000122070312,3.61899995803833 12.402999877929688,1.3389999866485596 12.130000114440918,-0.3499999940395355 C11.961999893188477,-1.3869999647140503 11.586999893188477,-2.388000011444092 11.39799976348877,-3.4230000972747803 C10.593000411987305,-7.815000057220459 10.77299976348877,-12.21399974822998 11.229000091552734,-16.632999420166016 C11.684000015258789,-21.042999267578125 17.159000396728516,-27.430999755859375 17.156999588012695,-27.56100082397461 C18.415000915527344,-28.233999252319336 30.229999542236328,-30.343000411987305 33.887001037597656,-33.49700164794922 C34.93000030517578,-35.20899963378906 36.50299835205078,-36.750999450683594 35.66299819946289,-39.06399917602539 C32.9379997253418,-38.72200012207031 32.04199981689453,-35.62799835205078 29.5310001373291,-34.965999603271484 C29.520000457763672,-35.03499984741211 29.510000228881836,-35.10200119018555 29.493000030517578,-35.17599868774414 C26.589000701904297,-36.38100051879883 23.753999710083008,-36.619998931884766 20.96500015258789,-34.867000579833984 C20.02199935913086,-34.275001525878906 19.073999404907227,-33.689998626708984 18.062000274658203,-33.22800064086914 C13.060999870300293,-30.948999404907227 7.915999889373779,-29.509000778198242 2.4800000190734863,-30.827999114990234 C-1.49399995803833,-31.791000366210938 -2.2929999828338623,-33.334999084472656 -0.9819999933242798,-37.25 C-0.47099998593330383,-38.775001525878906 0.3499999940395355,-40.097999572753906 1.4429999589920044,-41.266998291015625 C3.385999917984009,-43.34700012207031 12.604999542236328,-49.452999114990234 14.770999908447266,-51.09600067138672 C15.244999885559082,-51.45600128173828 17.117769241333008,-53.75400161743164 16.80476951599121,-54.472999572753906 C16.5197696685791,-55.125999450683594 14.140999794006348,-55.28900146484375 13.506999969482422,-55.28900146484375 C11.904000282287598,-55.28900146484375 9.51099967956543,-53.80500030517578 8.034000396728516,-53.28499984741211"/></g></g><g transform="matrix(1,0,0,1,175.8459930419922,99.36599731445312)" opacity="1" style="display: block;"><g opacity="1" transform="matrix(1,0,0,1,46.21200180053711,55.125)"><path fill="rgb(228,109,38)" fill-opacity="1" d=" M27.665861129760742,42.731666564941406 C34.91386032104492,42.712669372558594 40.83134460449219,42.495086669921875 47.946346282958984,39.00408935546875 C40.959346771240234,38.387088775634766 35.45611572265625,38.65700149536133 32.957115173339844,32.72999954223633 C30.354114532470703,26.554000854492188 30.691999435424805,21.041000366210938 34.85499954223633,16.14900016784668 C36.96200180053711,13.67300033569336 39.06800079345703,11.182000160217285 40.4379997253418,8.182999610900879 C41.22200012207031,7.339000225067139 41.117000579833984,6.519000053405762 40.36800003051758,5.7179999351501465 C39.67900085449219,4.105000019073486 39.28499984741211,2.318000078201294 37.891998291015625,1.1009999513626099 C35.84700012207031,-0.6880000233650208 33.805999755859375,-2.48799991607666 31.68000030517578,-4.177999973297119 C27.91900062561035,-7.164999961853027 25.257999420166016,-10.729000091552734 25.165000915527344,-15.760000228881836 C24.56999969482422,-19.59000015258789 25.298999786376953,-23.464000701904297 24.7810001373291,-27.297000885009766 C24.825000762939453,-30.086000442504883 23.909000396728516,-32.70500183105469 23.341999053955078,-35.3849983215332 C19.486000061035156,-44.05500030517578 12.663000106811523,-49.17599868774414 3.7339999675750732,-51.77799987792969 C1.2289999723434448,-52.40700149536133 -1.2860000133514404,-52.90599822998047 -3.882999897003174,-52.391998291015625 C-7.283999919891357,-52.5359992980957 -10.737000465393066,-51.95000076293945 -14.065999984741211,-53.106998443603516 C-18.538000106811523,-54.875 -22.886999130249023,-53.987998962402344 -27.209999084472656,-52.50400161743164 C-28.488000869750977,-52.14099884033203 -29.766000747680664,-51.77799987792969 -31.04400062561035,-51.415000915527344 C-32.47200012207031,-50.62699890136719 -34.244998931884766,-50.57600021362305 -35.46699905395508,-49.34700012207031 C-35.46699905395508,-49.34700012207031 -40.654998779296875,-45.946998596191406 -45.78300094604492,-40.625999450683594 C-45.45800018310547,-40.2760009765625 -38.722999572753906,-47.24800109863281 -34.82600021362305,-49.52299880981445 C-34.82500076293945,-49.52299880981445 -30.715999603271484,-52.40999984741211 -28.163999557495117,-51.91699981689453 C-31.128000259399414,-50.13800048828125 -32.891998291015625,-45.79199981689453 -35.45399856567383,-44.25400161743164 C-35.45399856567383,-44.25400161743164 -35.45399856567383,-44.255001068115234 -35.45399856567383,-44.255001068115234 C-39.698001861572266,-41.321998596191406 -43.91999816894531,-38.40700149536133 -45.13600158691406,-32.86000061035156 C-45.96200180053711,-29.084999084472656 -45.19499969482422,-27.599000930786133 -41.52899932861328,-26.631000518798828 C-35.308998107910156,-24.988000869750977 -29.365999221801758,-26.076000213623047 -23.988000869750977,-29.26300048828125 C-20.55900001525879,-31.29599952697754 -17.128999710083008,-31.944000244140625 -13.329000473022461,-31.56999969482422 C-11.892999649047852,-30.71299934387207 -11.012999534606934,-31.798999786376953 -10.126999855041504,-32.573001861572266 C-9.126999855041504,-33.44599914550781 -8.232000350952148,-34.43899917602539 -7.020999908447266,-35.03900146484375 C-5.000999927520752,-37.433998107910156 -4.855999946594238,-40.35200119018555 -4.724999904632568,-43.275001525878906 C-5.107999801635742,-44.01599884033203 -5.689000129699707,-44.78099822998047 -5.047999858856201,-45.375999450683594 C-5.2270002365112305,-43.52199935913086 -3.2060000896453857,-40.159000396728516 -1.9670000076293945,-39.237998962402344 C2.7850000858306885,-35.709999084472656 12.006999969482422,-33.24300003051758 11.86400032043457,-31.697999954223633 C12.217000007629395,-30.88800048828125 12.847999572753906,-30.275999069213867 13.663000106811523,-30.084999084472656 C17.28700065612793,-29.236000061035156 17.75,-26.586999893188477 17.882999420166016,-23.43600082397461 C18.02400016784668,-20.118000030517578 17.597000122070312,-16.791000366210938 18.113000869750977,-13.487000465393066 C18.805999755859375,-11.800000190734863 18.422000885009766,-9.925999641418457 19.01799964904785,-8.232999801635742 C20.71299934387207,-3.4200000762939453 18.22100067138672,13.237000465393066 15.906999588012695,18.56800079345703 C12.352999687194824,26.756999969482422 13.168462753295898,44.88232421875 13.321229934692383,46.18617248535156 C13.966872215270996,51.130897521972656 15.480510711669922,50.96752166748047 19.450510025024414,51.90052032470703 C27.145156860351562,52.642642974853516 39.03057861328125,50.380374908447266 39.70558166503906,49.682373046875 C35.34666442871094,47.743797302246094 29.288860321044922,46.98366928100586 27.665861129760742,42.731666564941406z"/></g></g><g transform="matrix(1,0,0,1,216.3780059814453,169.24400329589844)" opacity="1" style="display: block;"><g opacity="1" transform="matrix(1,0,0,1,15.211000442504883,20.94099998474121)"><path fill="rgb(140,56,29)" fill-opacity="1" d=" M5.74399995803833,-17.26300048828125 C4.073999881744385,-9.758000373840332 -3.753000020980835,-6.510000228881836 -4.886000156402588,-4.958000183105469 C-7.285999774932861,-3.7890000343322754 -9.458999633789062,-4.215000152587891 -11.932000160217285,-4.169000148773193 C-13.868000030517578,-4.132999897003174 -14.961000442504883,-3.7690000534057617 -14.772000312805176,-1.6579999923706055 C-14.515000343322754,0.44600000977516174 -12.797266960144043,14.966567039489746 -11.698266983032227,20.000566482543945 C-7.450267314910889,20.62256622314453 9.786580085754395,17.261520385742188 9.946579933166504,16.918521881103516 C2.9663500785827637,13.404520988464355 6.475644588470459,7.211272716522217 6.560644626617432,6.668272495269775 C8.443644523620605,9.382272720336914 11.786096572875977,13.81530475616455 14.932096481323242,15.203304290771484 C17.40509605407715,16.29430389404297 21.371095657348633,14.524304389953613 22.75209617614746,13.06530475616455 C14.977285385131836,12.539179801940918 7.607827663421631,2.3059685230255127 6.306000232696533,-6.703000068664551 C5.299755096435547,-16.207420349121094 6.506999969482422,-20.69099998474121 5.74399995803833,-17.26300048828125z"/></g></g><g transform="matrix(1,0,0,1,155.0139923095703,129.40699768066406)" opacity="1" style="display: block;"><g opacity="1" transform="matrix(1,0,0,1,4.461999893188477,7.138999938964844)"><path fill="rgb(62,46,48)" fill-opacity="1" d=" M9.461999893188477,-5.065000057220459 C7.89900016784668,-1.4429999589920044 7.631999969482422,3.359999895095825 8.809000015258789,7.081999778747559 C8.659000396728516,7.436999797821045 8.406999588012695,7.690999984741211 8.055999755859375,7.848999977111816 C6.321000099182129,8.262999534606934 4.748000144958496,8.062000274658203 3.496999979019165,6.64300012588501 C0.925000011920929,3.253000020980835 1.0379999876022339,-1.4079999923706055 3.114000082015991,-5.074999809265137 C5.230999946594238,-6.638999938964844 7.3470001220703125,-6.15500020980835 9.461999893188477,-5.065000057220459z"/></g></g><g transform="matrix(1,0,0,1,194.22898864746094,110.46400451660156)" opacity="1" style="display: block;"><g opacity="1" transform="matrix(1,0,0,1,24.131999969482422,37.981998443603516)"><path fill="rgb(251,175,132)" fill-opacity="1" d=" M22.79199981689453,-7.264999866485596 C22.80500030517578,-9.984999656677246 22.690000534057617,-12.711999893188477 22.858999252319336,-15.42199993133545 C23.163000106811523,-20.299999237060547 16.75200080871582,-26.405000686645508 16.41699981689453,-26.645999908447266 C15.307999610900879,-28.452999114990234 12.451000213623047,-28.187999725341797 10.730999946594238,-28.68899917602539 C5.748000144958496,-30.141000747680664 1.7869999408721924,-32.707000732421875 -0.46000000834465027,-37.534000396728516 C-0.7379999756813049,-37.72600173950195 -1.0119999647140503,-37.731998443603516 -1.281999945640564,-37.51900100708008 C-1.9950000047683716,-34.89500045776367 -2.7090001106262207,-32.270999908447266 -3.4260001182556152,-29.642000198364258 C-4.307000160217285,-27.905000686645508 -5.183000087738037,-26.17300033569336 -6.058000087738037,-24.44099998474121 C-9.274999618530273,-21.016000747680664 -14.15999984741211,-20.625999450683594 -18.349000930786133,-19.218000411987305 C-18.7450008392334,-17.8799991607666 -22.84000015258789,-10.335000038146973 -23.086000442504883,-4.2729997634887695 C-23.881999969482422,-2.01200008392334 -21.982999801635742,15.031999588012695 -19.135000228881836,20.606000900268555 C-19.134000778198242,20.60700035095215 -19.132999420166016,20.60700035095215 -19.132999420166016,20.607999801635742 C-17.643999099731445,24.065000534057617 -14.944999694824219,26.496999740600586 -12.157999992370605,28.856000900268555 C-9.506999969482422,32.1150016784668 -6.359000205993652,34.56700134277344 -2.0290000438690186,35.104000091552734 C1.4329999685287476,36.42499923706055 4.440999984741211,37.731998443603516 8.720999717712402,37.066001892089844 C10.76099967956543,37.08599853515625 14.77400016784668,33.409000396728516 15.345000267028809,32.73699951171875 C19.62299919128418,25.011999130249023 23.79800033569336,17.308000564575195 23.851999282836914,8.04800033569336 C23.881999969482422,2.8910000324249268 23.0049991607666,-2.1540000438690186 22.79199981689453,-7.264999866485596z M5.557000160217285,13.225000381469727 C5.269000053405762,13.527999877929688 4.96999979019165,13.989999771118164 4.583000183105469,13.972000122070312 C1.3730000257492065,13.82699966430664 -0.7710000276565552,10.458999633789062 0.3959999978542328,7.454999923706055 C0.8899999856948853,6.182000160217285 1.8450000286102295,5.109000205993652 2.184000015258789,3.7909998893737793 C2.632999897003174,2.046999931335449 3.4790000915527344,0.13600000739097595 1.2829999923706055,-1.1319999694824219 C1.74399995803833,-1.6950000524520874 1.8309999704360962,-2.257999897003174 1.6970000267028809,-2.819999933242798 C2.371999979019165,-2.1059999465942383 2.4639999866485596,-1.0420000553131104 2.6989998817443848,-0.10700000077486038 C3.3610000610351562,2.5320000648498535 3.8949999809265137,5.202000141143799 4.5370001792907715,7.8480000495910645 C4.526000022888184,9.70199966430664 7.441999912261963,11.01200008392334 5.557000160217285,13.225000381469727z"/></g></g><g transform="matrix(1,0,0,1,173.4969940185547,128.4320068359375)" opacity="1" style="display: block;"><g opacity="1" transform="matrix(1,0,0,1,27,46.172000885009766)"><path fill="rgb(252,148,105)" fill-opacity="1" d=" M-0.7319999933242798,-6.160999774932861 C-3.0239999294281006,-11.432000160217285 -5.414000034332275,-21.558000564575195 -4.863999843597412,-24.533000946044922 C-5.414000034332275,-27.25200080871582 -2.8489999771118164,-36.6879997253418 -2.989000082015991,-37.92300033569336 C-3.002000093460083,-38.03799819946289 -2.9649999141693115,-38.15399932861328 -2.875999927520752,-38.22800064086914 C-2.565999984741211,-38.48699951171875 -2.197999954223633,-38.672000885009766 -1.8990000486373901,-38.948001861572266 C-1.3619999885559082,-39.44300079345703 -0.8740000128746033,-39.9739990234375 -0.5479999780654907,-40.632999420166016 C-0.2590000033378601,-42.2130012512207 1.2289999723434448,-43.77299880981445 -0.48500001430511475,-45.375999450683594 C-6.604000091552734,-45.922000885009766 -10.987000465393066,-36.15800094604492 -11.288999557495117,-30.716999053955078 C-11.579999923706055,-25.47100067138672 -11.4399995803833,-20.229999542236328 -9.616000175476074,-15.180000305175781 C-9.350000381469727,-14.444999694824219 -9.022000312805176,-13.288999557495117 -9.880999565124512,-12.887999534606934 C-10.920000076293945,-12.402999877929688 -11.567999839782715,-13.380000114440918 -12.020000457763672,-14.23900032043457 C-12.359000205993652,-14.88599967956543 -12.626999855041504,-15.569999694824219 -12.92300033569336,-16.23900032043457 C-13.977999687194824,-18.628000259399414 -14.774999618530273,-21.1560001373291 -16.990999221801758,-22.854000091552734 C-20.59600067138672,-25.614999771118164 -25.027000427246094,-24.048999786376953 -25.851999282836914,-19.590999603271484 C-26.750999450683594,-14.72700023651123 -21.37299919128418,-4.334000110626221 -18.774999618530273,-5.611999988555908 C-15.17199993133545,-10.411999702453613 -1.6469999551773071,-1.6829999685287476 -1.1230000257492065,8.138999938964844 C-1.4459999799728394,17.44099998474121 -3.513000011444092,26.31800079345703 -7.2170000076293945,34.834999084472656 C-7.2170000076293945,34.834999084472656 -7.293000221252441,34.875999450683594 -7.293000221252441,34.875999450683594 C-7.618000030517578,35.270999908447266 -8.060999870300293,35.808998107910156 -8.385000228881836,36.20399856567383 C-8.718999862670898,37.10200119018555 -9.538999557495117,37.66600036621094 -10.112000465393066,38.40700149536133 C-11.182999610900879,39.79199981689453 -12.777999877929688,40.68600082397461 -13.505000114440918,42.422000885009766 C-11.0600004196167,45.922000885009766 -8.166000366210938,45.814998626708984 -4.4730000495910645,44.33300018310547 C-1.2740000486373901,43.04999923706055 1.1180000305175781,40.74700164794922 3.2160000801086426,38.04499816894531 C6.802000045776367,33.428001403808594 7.756999969482422,23.65399932861328 9.461000442504883,22.444000244140625 C11.760000228881836,15.788999557495117 23.624000549316406,11.47700023651123 26.750999450683594,10.918999671936035 C18.033000946044922,11.508999824523926 6.26200008392334,5.9730000495910645 -0.7319999933242798,-6.160999774932861z"/></g></g><g transform="matrix(1,0,0,1,226.1540069580078,143.31399536132812)" opacity="1" style="display: block;"><g opacity="1" transform="matrix(1,0,0,1,6.888000011444092,4.289000034332275)"><path fill="rgb(104,62,46)" fill-opacity="1" d=" M-5.793000221252441,-4.039000034332275 C-4.775000095367432,0.37299999594688416 -1.746999979019165,1.8569999933242798 1.6710000038146973,-0.5870000123977661 C5.316999912261963,-3.194000005722046 5.4039998054504395,-3.1559998989105225 6.638999938964844,1.9739999771118164 C4.60099983215332,0.3490000069141388 3.2920000553131104,1.0210000276565552 1.7339999675750732,2.5339999198913574 C0.18299999833106995,4.039000034332275 -2.01200008392334,3.7070000171661377 -3.75600004196167,2.492000102996826 C-6.03000020980835,0.906000018119812 -6.638999938964844,-1.3639999628067017 -5.793000221252441,-4.039000034332275z"/></g></g><g transform="matrix(1,0,0,1,225.44000244140625,133.0780029296875)" opacity="1" style="display: block;"><g opacity="1" transform="matrix(1,0,0,1,7.177999973297119,2.000999927520752)"><path fill="rgb(69,36,23)" fill-opacity="1" d=" M7.802999973297119,2.0399999618530273 C3.984999895095825,2.0399999618530273 -0.8349999785423279,2.2100000381469727 -4.590000152587891,2.134999990463257 C-5.599999904632568,2.114000082015991 -7.116000175476074,2.502000093460083 -7.045000076293945,0.6209999918937683 C-6.984000205993652,-0.9879999756813049 -5.71999979019165,-1.0080000162124634 -4.729000091552734,-1.0449999570846558 C-1.812000036239624,-1.156000018119812 -2.8929998874664307,-1.034999966621399 0.026000000536441803,-1.0509999990463257 C2.3310000896453857,-1.0640000104904175 5.695000171661377,-0.45500001311302185 7.802999973297119,2.0399999618530273z"/></g></g><g transform="matrix(1,0,0,1,216.73699951171875,170.50900268554688)" opacity="1" style="display: block;"><g opacity="1" transform="matrix(1,0,0,1,5.107999801635742,1.4639999866485596)"><path fill="rgb(252,148,105)" fill-opacity="1" d=" M-4.859000205993652,-0.6460000276565552 C-1.6319999694824219,-1.0499999523162842 1.6150000095367432,-1.0210000276565552 4.859000205993652,-1.2139999866485596 C1.7669999599456787,1.2139999866485596 -1.503999948501587,0.9639999866485596 -4.859000205993652,-0.6460000276565552z"/></g></g><g transform="matrix(1,0,0,1,215.58499145507812,144.1479949951172)" opacity="1" style="display: block;"><g opacity="1" transform="matrix(1,0,0,1,6.0929999351501465,10.206999778747559)"><path fill="rgb(252,148,105)" fill-opacity="1" d=" M3.5,4.497000217437744 C2.8380000591278076,3.9100000858306885 2.186000108718872,3.127000093460083 2.193000078201294,2.0859999656677246 C2.193000078201294,2.0859999656677246 2.193000078201294,2.0869998931884766 2.193000078201294,2.0869998931884766 C2.193000078201294,2.0869998931884766 2.193000078201294,2.0869998931884766 2.193000078201294,2.0859999656677246 C1.5549999475479126,-0.8690000176429749 1.027999997138977,-3.8559999465942383 0.2280000001192093,-6.767000198364258 C-0.11999999731779099,-8.038000106811523 -0.08299999684095383,-9.88599967956543 -2.178999900817871,-9.956999778747559 C-2.822000026702881,-8.925999641418457 -2.009999990463257,-7.896999835968018 -2.174999952316284,-6.867000102996826 C-1.0549999475479126,-4.820000171661377 -1.4229999780654907,-2.937999963760376 -2.632999897003174,-1.027999997138977 C-5.8429999351501465,4.038000106811523 -5.388000011444092,5.460999965667725 -0.4009999930858612,8.762999534606934 C1.402999997138977,9.956999778747559 3.2699999809265137,8.770000457763672 4.0320000648498535,7.184000015258789 C5.8429999351501465,6.341000080108643 5.2210001945495605,6.0229997634887695 3.5,4.497000217437744z"/></g></g><g transform="matrix(1,0,0,1,193.27000427246094,142.74899291992188)" opacity="1" style="display: block;"><g opacity="1" transform="matrix(1,0,0,1,10.034000396728516,4.453000068664551)"><path fill="rgb(96,54,47)" fill-opacity="1" d=" M8.467000007629395,-4.203000068664551 C6.339000225067139,2.4149999618530273 -0.8339999914169312,0.6729999780654907 -5.853000164031982,-1.8799999952316284 C-7.090000152587891,-2.3440001010894775 -8.633000373840332,-0.8740000128746033 -9.29800033569336,0.4180000126361847 C-9.784000396728516,1.3650000095367432 -8.57699966430664,1.6460000276565552 -7.943999767303467,2.072000026702881 C-5.9679999351501465,-0.22200000286102295 -4.051000118255615,0.26899999380111694 -2.1640000343322754,2.194000005722046 C-0.5659999847412109,4.203000068664551 4.3520002365112305,4.171999931335449 6.0370001792907715,2.8410000801086426 C6.290999889373779,2.6500000953674316 9.784000396728516,-1.218000054359436 8.467000007629395,-4.203000068664551z"/></g></g><g transform="matrix(1,0,0,1,194.83399963378906,133.510009765625)" opacity="1" style="display: block;"><g opacity="1" transform="matrix(1,0,0,1,9.927000045776367,2.743000030517578)"><path fill="rgb(89,52,43)" fill-opacity="1" d=" M7.4079999923706055,-1.8049999475479126 C7.4079999923706055,-1.8049999475479126 0.16699999570846558,-2.493000030517578 -1.725000023841858,-1.63100004196167 C-1.725000023841858,-1.63100004196167 -1.065999984741211,-1.8539999723434448 -1.725000023841858,-1.63100004196167 C-2.384000062942505,-1.4079999923706055 -8.696999549865723,0.6150000095367432 -9.677000045776367,2.493000030517578 C-8.541000366210938,2.319000005722046 -7.455999851226807,2.1540000438690186 -6.370999813079834,1.9880000352859497 C-5.24399995803833,1.5800000429153442 -0.07800000160932541,1.1269999742507935 1.3830000162124634,1.2389999628067017 C3.4730000495910645,1.3990000486373901 5.585000038146973,1.6729999780654907 7.644000053405762,1.1050000190734863 C8.470999717712402,0.8769999742507935 9.677000045776367,0.8320000171661377 9.532999992370605,-0.5519999861717224 C9.395000457763672,-1.8849999904632568 7.4079999923706055,-1.8049999475479126 7.4079999923706055,-1.8049999475479126z"/></g></g></g></g></g></svg>